<svg width="190" height="60" fill="none" xmlns="http://www.w3.org/2000/svg"><path d="M45.128 44.312c0 1.726.01 3.452-.003 5.175-.01 1.446-.51 2.707-1.535 3.743-.906.912-1.815 1.818-2.724 2.73-.492.496-.992.944-1.163 1.71-.174.79-.837 1.077-1.64 1.032-.745-.04-1.214-.471-1.395-1.128-.201-.731-.085-1.59.69-1.815 1.3-.386 2.045-1.374 2.913-2.239 3.131-3.124 2.646-2.092 2.673-6.402.02-2.707-.014-5.415.01-8.118.007-.91-.321-1.627-.943-2.263-1.538-1.57-3.05-3.169-4.59-4.731-1.084-1.094-1.573-2.407-1.573-3.928 0-6.768-.004-13.532-.007-20.3 0-.667 0-1.296-.362-1.939-.404-.707-.185-1.46.488-1.979.643-.499 1.337-.475 1.96.024.648.523.895 1.268.457 1.983-.352.574-.352 1.138-.352 1.736-.003 6.768.017 13.533-.017 20.301-.007 1.128.308 2.017 1.107 2.81 1.467 1.453 2.865 2.97 4.318 4.437 1.131 1.138 1.699 2.485 1.692 4.088-.01 1.689-.004 3.38-.004 5.073z" fill="#2E96CD"/><path d="M14.545 18.514c0-3.145-.003-6.293.007-9.438.004-.481-.072-.902-.314-1.346-.397-.718-.308-1.456.362-2 .653-.526 1.354-.564 2.03-.014.68.554.783 1.272.397 1.993a2.7 2.7 0 00-.338 1.337c.01 6.293.027 12.586-.004 18.875-.007 1.128.325 2.017 1.139 2.796a211.333 211.333 0 014.385 4.365c.574.585 1.234.934 2.054.944 1.286.017 2.57.007 3.856.03.373.007.626-.215.927-.355.745-.338 1.483-.3 2.016.349.52.632.557 1.388.028 2.047-.527.657-1.282.858-1.986.41-.51-.32-.995-.341-1.528-.345-.981-.003-1.962-.007-2.943-.003-1.525.01-2.834-.503-3.918-1.586-1.552-1.556-3.114-3.104-4.666-4.66-1.063-1.066-1.493-2.389-1.5-3.858-.01-3.18-.004-6.362-.004-9.54z" fill="#274C9A"/><path d="M31.49 44.23c-.018 1.138-1.327 1.975-2.329 1.404-.574-.328-1.128-.372-1.733-.372-1.962.003-3.927-.051-5.886.017-1.965.068-3.504-.663-4.867-2.048-3.682-3.736-7.415-7.414-11.127-11.12-.964-.96-1.975-1.459-3.319-.638-.71.437-1.394.113-1.873-.496-.492-.629-.455-1.357-.007-1.98.472-.659 1.23-.779 1.914-.467.506.229.995.382 1.532.43 1.5.134 2.628.944 3.657 1.976 3.654 3.664 7.336 7.301 10.98 10.976.786.793 1.62 1.224 2.768 1.19 1.959-.062 3.924-.01 5.887-.007.734 0 1.422-.007 2.143-.387 1.046-.543 2.276.36 2.26 1.522z" fill="#2E96CD"/><path d="M31.455 58.37c.007 1.166-1.24 2.02-2.286 1.447a3.009 3.009 0 00-1.928-.352c-3.538.481-6.133-.913-8.54-3.511-4.197-4.536-8.699-8.788-13.074-13.164-.284-.283-.56-.516-1.008-.594-.889-.158-1.33-.804-1.262-1.679.065-.834.599-1.401 1.422-1.473.838-.075 1.535.315 1.73 1.193.096.427.274.731.568 1.022 5.052 5.035 10.094 10.077 15.139 15.119.595.595 1.285.95 2.157.93a92.756 92.756 0 013.65.006c.397.007.694-.167 1.03-.331 1.158-.56 2.395.167 2.402 1.388z" fill="#274C9A"/><path d="M24.253 1.638c-.759 4.3-.352 8.649-.424 12.976-.072 4.365-.013 8.73-.017 13.095 0 .544.034 1.043.339 1.542.45.735.242 1.442-.4 1.986-.653.55-1.368.567-2.03.024-.643-.53-.852-1.241-.428-1.983.287-.502.342-.998.342-1.545-.007-7.882-.007-15.768-.007-23.654 0-.636.003-1.237-.373-1.839-.369-.591-.177-1.237.335-1.75.513-.516 1.122-.609 1.771-.352.677.26.937.834.892 1.5zm11.673 41.474c0-1.32-.007-2.64.003-3.959.003-.478-.062-.909-.3-1.353-.377-.694-.281-1.378.379-1.894.574-.448 1.213-.478 1.78-.061.68.495.886 1.25.48 1.972-.291.516-.333 1.008-.333 1.545 0 2.471.01 4.936-.003 7.407-.02 3.323-2.218 5.497-5.558 5.51-2.266.007-4.533 0-6.799.007-.803.004-1.582-.044-2.355.383-.677.376-1.34.014-1.76-.584-.38-.544-.329-1.139.068-1.693.472-.66 1.159-.796 1.791-.468.65.339 1.282.352 1.955.352 2.468-.003 4.94.01 7.408-.007 1.996-.013 3.213-1.22 3.244-3.199.017-1.32.003-2.639 0-3.958zM29.848 31.49c-1.151.017-1.955-1.22-1.326-2.184.352-.54.383-1.053.383-1.62 0-7.907 0-15.813.003-23.72 0-.612-.034-1.176-.396-1.733-.39-.598-.24-1.234.311-1.726.578-.52 1.21-.557 1.85-.137.608.404.898 1.036.56 1.665-.468.868-.393 1.757-.393 2.66-.007 7.636-.004 15.272-.007 22.908 0 .609.055 1.173.342 1.754.512 1.032-.205 2.112-1.327 2.133z" fill="#2E96CD"/><path d="M44.024 31.633c-1.207-.013-1.973-1.295-1.37-2.406.259-.479.314-.937.314-1.443-.004-3.848-.004-7.7.003-11.55 0-.51-.065-.964-.328-1.439-.4-.714-.263-1.453.403-1.993.626-.506 1.313-.512 1.949-.037.687.51.888 1.275.482 1.972-.36.612-.363 1.2-.363 1.836 0 3.715.004 7.43 0 11.146 0 .54.055 1.026.328 1.539.588 1.094-.225 2.389-1.418 2.375zm53.847 5.405V13.815h13.212v2.953h-9.927v6.87h9.626v2.988h-9.626v10.409h-3.285v.003zm37.064 0V13.815h2.888l15.286 18.024V13.815h3.302v23.22h-2.953l-15.239-18.042v18.042h-3.284v.003zm25.247-1.811v-4.383c1.052 1.207 2.054 2.075 3.011 2.605.957.53 1.976.797 3.063.797 1.152 0 2.058-.27 2.721-.804.663-.536.994-1.264.994-2.184 0-.752-.225-1.415-.673-1.986-.448-.57-1.518-1.391-3.213-2.464-2.622-1.692-4.269-3.005-4.939-3.935-.67-.93-1.005-2.037-1.005-3.319 0-1.805.639-3.285 1.917-4.44 1.279-1.156 2.923-1.733 4.936-1.733.896 0 1.778.13 2.649.39.869.26 1.747.66 2.632 1.203v3.767c-1.018-.817-1.958-1.412-2.823-1.785-.862-.369-1.726-.557-2.591-.557-1.039 0-1.89.256-2.547.773-.659.512-.988 1.175-.988 1.982 0 1.152 1.368 2.577 4.102 4.283l.496.297c2.225 1.385 3.681 2.605 4.365 3.661.684 1.057 1.029 2.366 1.029 3.925 0 1.77-.643 3.233-1.925 4.389-1.285 1.155-2.926 1.733-4.929 1.733-1.251 0-2.379-.178-3.387-.53-.998-.346-1.966-.91-2.895-1.685zM92.799 23.81H79.33v3.004H92.8V23.81zm.41-9.995H79.331v2.953H93.21v-2.953zm.482 20.235h-14.36v2.988h14.36v-2.987zM74.176 19.916a10.893 10.893 0 00-3.644-4.091 10.895 10.895 0 00-3.394-1.528c-1.234-.322-2.707-.482-4.423-.482H57.68v3.168h5.035c2.864 0 5.117.756 6.754 2.267 1.638 1.51 2.458 3.575 2.458 6.2 0 2.612-.82 4.67-2.458 6.174-1.637 1.504-3.89 2.256-6.754 2.256H57.68v3.155h5.035c1.702 0 3.182-.16 4.43-.482 1.25-.322 2.379-.83 3.387-1.528a10.806 10.806 0 003.634-4.092c.861-1.675 1.295-3.517 1.295-5.52.004-1.996-.427-3.832-1.285-5.497zm48.826-6.101h-2.424l-10.059 23.223h3.404l2.694-6.241.465-1.08 4.659-10.87 5.028 11.351.078.181.007.018 2.902 6.641h3.436l-10.19-23.223z" fill="#274C9A"/><path d="M126.769 30.198h-.003l.089.199-.007-.017-.079-.182z" fill="#274C9A"/><path d="M60.086 49.183h-2.328v-6.727h2.263c1.415 0 2.088.752 2.088 1.696 0 .885-.557 1.377-1.203 1.558.752.134 1.357.828 1.357 1.675-.003 1.009-.762 1.798-2.177 1.798zm-.117-6.16h-1.538v2.407h1.57c.912 0 1.425-.462 1.425-1.213 0-.722-.482-1.194-1.457-1.194zm.041 2.964h-1.579v2.629h1.607c.97 0 1.548-.492 1.548-1.3 0-.81-.615-1.329-1.576-1.329zm3.442-3.551c0-.288.222-.493.492-.493s.493.202.493.493a.49.49 0 01-.493.499.485.485 0 01-.492-.5zm.154 1.493h.673v5.254h-.673V43.93zm2.311-1.866h.673v7.12h-.673v-7.12zm4.513 1.787c1.038 0 1.78.558 2.078 1.224V43.93h.673v5.39c0 1.474-1.012 2.445-2.454 2.445-1.357 0-2.3-.694-2.513-1.791h.663c.223.71.886 1.203 1.85 1.203 1.001 0 1.78-.663 1.78-1.856V48.02c-.307.673-1.038 1.24-2.078 1.24-1.442 0-2.512-1.07-2.512-2.713 0-1.648 1.067-2.697 2.512-2.697zm.122.589c-1.107 0-1.951.769-1.951 2.109 0 1.33.847 2.126 1.951 2.126 1.077 0 1.956-.807 1.956-2.116 0-1.31-.875-2.12-1.956-2.12zm4.118-2.003c0-.288.223-.493.493-.493s.492.202.492.493a.49.49 0 01-.492.499.483.483 0 01-.492-.5zm.155 1.493h.673v5.254h-.673V43.93zm11.133.489h-.79c-.376-.865-1.193-1.425-2.27-1.425-1.49 0-2.635 1.076-2.635 2.82 0 1.743 1.145 2.83 2.636 2.83 1.415 0 2.454-.954 2.56-2.482h-2.83v-.546h3.54v.492c-.105 1.78-1.431 3.148-3.27 3.148-1.887 0-3.33-1.415-3.33-3.435 0-2.01 1.443-3.436 3.33-3.436 1.442-.007 2.577.756 3.059 2.034zm6.098 4.765h-.673v-.923c-.318.663-1.012 1.012-1.791 1.012-1.194 0-2.137-.731-2.137-2.27v-3.07h.663v2.995c0 1.166.636 1.76 1.597 1.76.98 0 1.664-.615 1.664-1.897v-2.857h.674v5.25h.003zm-3.446-6.44a.44.44 0 11.441.441.436.436 0 01-.44-.44zm1.484 0a.44.44 0 01.44-.44.44.44 0 01.435.44.438.438 0 11-.875 0zm3.702 1.187l1.77 4.6 1.771-4.6h.711l-2.109 5.253h-.759l-2.109-5.254h.725zm7.544 5.328c-1.49 0-2.577-1.039-2.577-2.703 0-1.675 1.07-2.704 2.577-2.704 1.538 0 2.482 1.097 2.482 2.434 0 .212 0 .345-.021.53h-4.358c.058 1.23.913 1.876 1.897 1.876.896 0 1.501-.472 1.692-1.172h.711c-.239.99-1.087 1.74-2.403 1.74zm-1.897-2.99h3.695c.027-1.224-.858-1.84-1.829-1.84-.95 0-1.787.616-1.866 1.84zm9.65-.089c0-1.166-.636-1.76-1.597-1.76-.981 0-1.664.614-1.664 1.896v2.868h-.674V43.93h.674v.896c.338-.653 1.011-.991 1.791-.991 1.193 0 2.136.731 2.136 2.27v3.08h-.663V46.18h-.003zm2.26-4.116h.673v7.12h-.673v-7.12zm2.156.373c0-.288.222-.493.492-.493s.492.202.492.493a.49.49 0 01-.492.499.485.485 0 01-.492-.5zm.154 1.493h.673v5.254h-.673V43.93zm4.512-.079c1.039 0 1.78.558 2.078 1.224V43.93h.673v5.39c0 1.474-1.012 2.445-2.454 2.445-1.357 0-2.301-.694-2.513-1.791h.664c.222.71.885 1.203 1.849 1.203 1.001 0 1.781-.663 1.781-1.856V48.02c-.308.673-1.039 1.24-2.078 1.24-1.443 0-2.513-1.07-2.513-2.713 0-1.648 1.07-2.697 2.513-2.697zm.126.589c-1.108 0-1.952.769-1.952 2.109 0 1.33.848 2.126 1.952 2.126 1.077 0 1.952-.807 1.952-2.116 0-1.31-.875-2.12-1.952-2.12zm.164-1.087c-.865 0-1.299-.54-1.299-1.183v-.127h.424c0 .493.26.77.875.77s.875-.28.875-.77h.434v.127c-.003.643-.444 1.183-1.309 1.183zm3.952-.916c0-.288.222-.493.492-.493s.492.202.492.493a.49.49 0 01-.492.499.485.485 0 01-.492-.5zm.154 1.493h.673v5.254h-.673V43.93zm9.373 2.106h-3.648v3.148h-.673v-6.727h.673v3.022h3.648v-3.022h.673v6.727h-.673v-3.148zm2.163-3.599c0-.288.223-.493.493-.493s.492.202.492.493a.49.49 0 01-.492.499.484.484 0 01-.493-.5zm.154 1.493h.674v5.254h-.674V43.93zm5.366.558l-2.704 4.139h2.752v.557h-3.521v-.557l2.704-4.14h-2.656v-.557h3.425v.558zm8.97 1.692c0-1.166-.605-1.76-1.538-1.76-.954 0-1.627.635-1.627 1.913v2.848h-.663v-3.001c0-1.166-.615-1.76-1.549-1.76-.964 0-1.627.635-1.627 1.913v2.848h-.673v-5.254h.673v.906c.339-.663 1.002-1.002 1.744-1.002.875 0 1.627.414 1.945 1.289.287-.858 1.059-1.289 1.897-1.289 1.165 0 2.088.732 2.088 2.27v3.08h-.663v-3.001h-.007zm4.529 3.079c-1.49 0-2.577-1.039-2.577-2.703 0-1.675 1.07-2.704 2.577-2.704 1.538 0 2.482 1.097 2.482 2.434 0 .212 0 .345-.021.53h-4.358c.058 1.23.913 1.876 1.897 1.876.896 0 1.501-.472 1.692-1.172h.711c-.239.99-1.083 1.74-2.403 1.74zm-1.897-2.99h3.695c.027-1.224-.858-1.84-1.829-1.84-.95 0-1.787.616-1.866 1.84zm5.907-1.771h-.732v-.568h.732V42.61h.683v1.32h1.443v.567h-1.443v3.26c0 .647.223.849.828.849h.615v.577h-.721c-.913 0-1.405-.376-1.405-1.425v-3.261zm3.34-2.434h.673v7.12h-.673v-7.12zm4.58 7.195c-1.49 0-2.577-1.039-2.577-2.703 0-1.675 1.069-2.704 2.577-2.704 1.538 0 2.481 1.097 2.481 2.434 0 .212 0 .345-.02.53h-4.358c.058 1.23.912 1.876 1.897 1.876.895 0 1.5-.472 1.692-1.172h.711c-.239.99-1.084 1.74-2.403 1.74zm-1.897-2.99h3.695c.027-1.224-.858-1.84-1.829-1.84-.95 0-1.788.616-1.866 1.84zm6.388 2.915h-.673V43.93h.673v.934c.288-.646.896-1.03 1.798-1.03v.705h-.184c-.875 0-1.617.393-1.617 1.712v2.933h.003zm2.763-6.747c0-.288.222-.493.492-.493s.492.202.492.493a.49.49 0 01-.492.499.485.485 0 01-.492-.5zm.153 1.493h.674v5.254h-.674V43.93z" fill="#878787"/><path d="M189.056 21.08v.557c-.004.027-.011.058-.014.085-.027.209-.045.417-.082.622a5.131 5.131 0 01-1.285 2.56 5.15 5.15 0 01-1.61 1.187 4.996 4.996 0 01-1.559.454c-.133.018-.27.031-.403.048h-.558c-.03-.006-.058-.01-.088-.017-.277-.04-.558-.058-.828-.123a5.16 5.16 0 01-2.909-1.846 5.167 5.167 0 01-1.114-2.8 4.942 4.942 0 01.096-1.524c.273-1.278.94-2.314 1.976-3.107a5.096 5.096 0 012.69-1.032 5.029 5.029 0 011.675.126c1.555.393 2.703 1.306 3.449 2.725.276.526.447 1.09.519 1.681.01.134.027.267.045.404zm-1.207.284a4.036 4.036 0 00-4.027-4.037c-2.222-.007-4.03 1.801-4.037 4.026a4.034 4.034 0 004.027 4.037 4.034 4.034 0 004.037-4.027z" fill="#274C9A"/><path d="M183.955 18.78c1.251 0 1.877.724 1.877 1.596 0 .632-.349 1.275-1.186 1.497l1.244 2.109h-1.207l-1.148-2.027h-.492v2.027H182v-5.203h1.955zm-.037.864h-.872v1.528h.872c.581 0 .841-.304.841-.776 0-.461-.26-.752-.841-.752z" fill="#274C9A"/></svg>